<mxfile host="app.diagrams.net" modified="2024-04-25T21:22:30.877Z" agent="Mozilla/5.0 (Windows NT 10.0; Win64; x64) AppleWebKit/537.36 (KHTML, like Gecko) Chrome/123.0.0.0 Safari/537.36" etag="-psH8B0KKBnOcoqwCaGH" version="24.3.0" type="github">
  <diagram name="Page-1" id="58cdce13-f638-feb5-8d6f-7d28b1aa9fa0">
    <mxGraphModel dx="1290" dy="557" grid="1" gridSize="10" guides="1" tooltips="1" connect="1" arrows="1" fold="1" page="1" pageScale="1" pageWidth="1100" pageHeight="850" background="none" math="0" shadow="0">
      <root>
        <mxCell id="0" />
        <mxCell id="1" parent="0" />
        <mxCell id="382b91b5511bd0f7-1" value="" style="ellipse;html=1;shape=startState;fillColor=#FFFFFF;strokeColor=#000000;rounded=1;shadow=0;comic=0;labelBackgroundColor=none;fontFamily=Verdana;fontSize=12;fontColor=#000000;align=center;direction=south;" parent="1" vertex="1">
          <mxGeometry x="20" y="55" width="30" height="30" as="geometry" />
        </mxCell>
        <mxCell id="382b91b5511bd0f7-5" value="Cancelado" style="rounded=1;whiteSpace=wrap;html=1;arcSize=24;fillColor=none;strokeColor=#000000;shadow=0;comic=0;labelBackgroundColor=none;fontFamily=Verdana;fontSize=12;fontColor=#000000;align=center;" parent="1" vertex="1">
          <mxGeometry x="90" y="230" width="120" height="60" as="geometry" />
        </mxCell>
        <mxCell id="382b91b5511bd0f7-6" value="Em Aberto" style="rounded=1;whiteSpace=wrap;html=1;arcSize=24;fillColor=none;strokeColor=#000000;shadow=0;comic=0;labelBackgroundColor=none;fontFamily=Verdana;fontSize=12;fontColor=#000000;align=center;" parent="1" vertex="1">
          <mxGeometry x="90" y="40" width="120" height="60" as="geometry" />
        </mxCell>
        <mxCell id="3cde6dad864a17aa-3" style="edgeStyle=orthogonalEdgeStyle;html=1;exitX=1;exitY=0.5;entryX=0;entryY=0.5;labelBackgroundColor=none;endArrow=open;endSize=8;strokeColor=#000000;fontFamily=Verdana;fontSize=12;align=left;fillColor=none;entryDx=0;entryDy=0;exitDx=0;exitDy=0;" parent="1" source="382b91b5511bd0f7-7" target="382b91b5511bd0f7-9" edge="1">
          <mxGeometry relative="1" as="geometry" />
        </mxCell>
        <mxCell id="hF7gDNZxGqtHMVExIgUM-4" value="Gerara Nota Fiscal" style="edgeLabel;html=1;align=center;verticalAlign=middle;resizable=0;points=[];" vertex="1" connectable="0" parent="3cde6dad864a17aa-3">
          <mxGeometry x="-0.1857" relative="1" as="geometry">
            <mxPoint x="-7" y="-15" as="offset" />
          </mxGeometry>
        </mxCell>
        <mxCell id="382b91b5511bd0f7-7" value="Em Separação" style="rounded=1;whiteSpace=wrap;html=1;arcSize=24;fillColor=none;strokeColor=#000000;shadow=0;comic=0;labelBackgroundColor=none;fontFamily=Verdana;fontSize=12;fontColor=#000000;align=center;" parent="1" vertex="1">
          <mxGeometry x="360" y="40" width="120" height="60" as="geometry" />
        </mxCell>
        <mxCell id="3cde6dad864a17aa-13" style="edgeStyle=elbowEdgeStyle;html=1;exitX=1;exitY=0.5;entryX=0;entryY=0.5;labelBackgroundColor=none;endArrow=open;endSize=8;strokeColor=#000000;fontFamily=Verdana;fontSize=12;align=left;fillColor=none;exitDx=0;exitDy=0;entryDx=0;entryDy=0;elbow=horizontal;" parent="1" source="382b91b5511bd0f7-9" target="382b91b5511bd0f7-10" edge="1">
          <mxGeometry relative="1" as="geometry">
            <Array as="points">
              <mxPoint x="790" y="60" />
            </Array>
          </mxGeometry>
        </mxCell>
        <mxCell id="hF7gDNZxGqtHMVExIgUM-5" value="Enviar Código de Rastreio" style="edgeLabel;html=1;align=center;verticalAlign=middle;resizable=0;points=[];" vertex="1" connectable="0" parent="3cde6dad864a17aa-13">
          <mxGeometry x="-0.2431" relative="1" as="geometry">
            <mxPoint x="21" y="-10" as="offset" />
          </mxGeometry>
        </mxCell>
        <mxCell id="382b91b5511bd0f7-9" value="Faturado" style="rounded=1;whiteSpace=wrap;html=1;arcSize=24;fillColor=none;strokeColor=#000000;shadow=0;comic=0;labelBackgroundColor=none;fontFamily=Verdana;fontSize=12;fontColor=#000000;align=center;" parent="1" vertex="1">
          <mxGeometry x="620" y="40" width="120" height="60" as="geometry" />
        </mxCell>
        <mxCell id="382b91b5511bd0f7-10" value="Enviado" style="rounded=1;whiteSpace=wrap;html=1;arcSize=24;fillColor=none;strokeColor=#000000;shadow=0;comic=0;labelBackgroundColor=none;fontFamily=Verdana;fontSize=12;fontColor=#000000;align=center;" parent="1" vertex="1">
          <mxGeometry x="880" y="40" width="120" height="60" as="geometry" />
        </mxCell>
        <mxCell id="2a3bc250acf0617d-9" style="edgeStyle=orthogonalEdgeStyle;html=1;labelBackgroundColor=none;endArrow=open;endSize=8;strokeColor=#000000;fontFamily=Verdana;fontSize=12;align=left;" parent="1" source="382b91b5511bd0f7-1" target="382b91b5511bd0f7-6" edge="1">
          <mxGeometry relative="1" as="geometry" />
        </mxCell>
        <mxCell id="2a3bc250acf0617d-10" style="edgeStyle=orthogonalEdgeStyle;html=1;labelBackgroundColor=none;endArrow=open;endSize=8;strokeColor=#000000;fontFamily=Verdana;fontSize=12;align=left;entryX=0;entryY=0.5;fillColor=none;exitX=1;exitY=0.5;exitDx=0;exitDy=0;" parent="1" source="382b91b5511bd0f7-6" target="382b91b5511bd0f7-7" edge="1">
          <mxGeometry relative="1" as="geometry">
            <Array as="points">
              <mxPoint x="250" y="70" />
              <mxPoint x="250" y="70" />
            </Array>
          </mxGeometry>
        </mxCell>
        <mxCell id="hF7gDNZxGqtHMVExIgUM-3" value="Enviar para Separação" style="edgeLabel;html=1;align=center;verticalAlign=middle;resizable=0;points=[];" vertex="1" connectable="0" parent="2a3bc250acf0617d-10">
          <mxGeometry x="-0.0222" relative="1" as="geometry">
            <mxPoint x="7" y="-15" as="offset" />
          </mxGeometry>
        </mxCell>
        <mxCell id="2a3bc250acf0617d-11" style="edgeStyle=orthogonalEdgeStyle;html=1;entryX=0.75;entryY=0;labelBackgroundColor=none;endArrow=open;endSize=8;strokeColor=#000000;fontFamily=Verdana;fontSize=12;align=left;exitX=0.5;exitY=1;fillColor=none;" parent="1" source="382b91b5511bd0f7-7" target="382b91b5511bd0f7-5" edge="1">
          <mxGeometry relative="1" as="geometry">
            <mxPoint x="410" y="220" as="sourcePoint" />
            <Array as="points">
              <mxPoint x="390" y="210" />
              <mxPoint x="220" y="210" />
            </Array>
          </mxGeometry>
        </mxCell>
        <mxCell id="hF7gDNZxGqtHMVExIgUM-2" value="Entregue" style="rounded=1;whiteSpace=wrap;html=1;arcSize=24;fillColor=none;strokeColor=#000000;shadow=0;comic=0;labelBackgroundColor=none;fontFamily=Verdana;fontSize=12;fontColor=#000000;align=center;" vertex="1" parent="1">
          <mxGeometry x="880" y="265" width="120" height="60" as="geometry" />
        </mxCell>
        <mxCell id="hF7gDNZxGqtHMVExIgUM-13" style="edgeStyle=orthogonalEdgeStyle;html=1;entryX=0.5;entryY=0;labelBackgroundColor=none;endArrow=open;endSize=8;strokeColor=#000000;fontFamily=Verdana;fontSize=12;align=left;exitX=0.5;exitY=1;fillColor=none;entryDx=0;entryDy=0;exitDx=0;exitDy=0;" edge="1" parent="1" source="382b91b5511bd0f7-6" target="382b91b5511bd0f7-5">
          <mxGeometry relative="1" as="geometry">
            <mxPoint x="430" y="110" as="sourcePoint" />
            <Array as="points">
              <mxPoint x="150" y="140" />
              <mxPoint x="150" y="140" />
            </Array>
            <mxPoint x="190" y="240" as="targetPoint" />
          </mxGeometry>
        </mxCell>
        <mxCell id="hF7gDNZxGqtHMVExIgUM-14" style="edgeStyle=orthogonalEdgeStyle;html=1;entryX=1;entryY=0.25;labelBackgroundColor=none;endArrow=open;endSize=8;strokeColor=#000000;fontFamily=Verdana;fontSize=12;align=left;exitX=0;exitY=1;fillColor=none;exitDx=0;exitDy=0;entryDx=0;entryDy=0;" edge="1" parent="1" source="382b91b5511bd0f7-9" target="382b91b5511bd0f7-5">
          <mxGeometry relative="1" as="geometry">
            <mxPoint x="430" y="110" as="sourcePoint" />
            <Array as="points">
              <mxPoint x="620" y="245" />
            </Array>
            <mxPoint x="190" y="240" as="targetPoint" />
          </mxGeometry>
        </mxCell>
        <mxCell id="hF7gDNZxGqtHMVExIgUM-15" style="edgeStyle=orthogonalEdgeStyle;html=1;entryX=1;entryY=0.75;labelBackgroundColor=none;endArrow=open;endSize=8;strokeColor=#000000;fontFamily=Verdana;fontSize=12;align=left;exitX=0;exitY=0.75;fillColor=none;exitDx=0;exitDy=0;entryDx=0;entryDy=0;" edge="1" parent="1" source="382b91b5511bd0f7-10" target="382b91b5511bd0f7-5">
          <mxGeometry relative="1" as="geometry">
            <mxPoint x="630" y="110" as="sourcePoint" />
            <Array as="points">
              <mxPoint x="880" y="260" />
              <mxPoint x="630" y="260" />
              <mxPoint x="630" y="275" />
            </Array>
            <mxPoint x="220" y="240" as="targetPoint" />
          </mxGeometry>
        </mxCell>
        <mxCell id="hF7gDNZxGqtHMVExIgUM-16" style="edgeStyle=orthogonalEdgeStyle;html=1;entryX=0.5;entryY=1;labelBackgroundColor=none;endArrow=open;endSize=8;strokeColor=#000000;fontFamily=Verdana;fontSize=12;align=left;exitX=0;exitY=0.5;fillColor=none;exitDx=0;exitDy=0;entryDx=0;entryDy=0;" edge="1" parent="1" source="hF7gDNZxGqtHMVExIgUM-2" target="382b91b5511bd0f7-5">
          <mxGeometry relative="1" as="geometry">
            <mxPoint x="640" y="120" as="sourcePoint" />
            <Array as="points">
              <mxPoint x="880" y="300" />
              <mxPoint x="610" y="300" />
              <mxPoint x="610" y="350" />
              <mxPoint x="150" y="350" />
            </Array>
            <mxPoint x="230" y="250" as="targetPoint" />
          </mxGeometry>
        </mxCell>
        <mxCell id="hF7gDNZxGqtHMVExIgUM-17" style="edgeStyle=elbowEdgeStyle;html=1;exitX=0.5;exitY=1;entryX=0.5;entryY=0;labelBackgroundColor=none;endArrow=open;endSize=8;strokeColor=#000000;fontFamily=Verdana;fontSize=12;align=left;fillColor=none;exitDx=0;exitDy=0;entryDx=0;entryDy=0;elbow=horizontal;" edge="1" parent="1" source="382b91b5511bd0f7-10" target="hF7gDNZxGqtHMVExIgUM-2">
          <mxGeometry relative="1" as="geometry">
            <mxPoint x="700" y="310" as="sourcePoint" />
            <mxPoint x="710" y="460" as="targetPoint" />
            <Array as="points">
              <mxPoint x="940" y="150" />
              <mxPoint x="690" y="350" />
            </Array>
          </mxGeometry>
        </mxCell>
        <mxCell id="hF7gDNZxGqtHMVExIgUM-18" value="Confirmar Recebimento" style="edgeLabel;html=1;align=center;verticalAlign=middle;resizable=0;points=[];" vertex="1" connectable="0" parent="hF7gDNZxGqtHMVExIgUM-17">
          <mxGeometry x="-0.2431" relative="1" as="geometry">
            <mxPoint x="70" as="offset" />
          </mxGeometry>
        </mxCell>
        <mxCell id="hF7gDNZxGqtHMVExIgUM-20" value="Cancelar pedido" style="text;html=1;align=center;verticalAlign=middle;whiteSpace=wrap;rounded=0;" vertex="1" parent="1">
          <mxGeometry x="150" y="150" width="60" height="30" as="geometry" />
        </mxCell>
        <mxCell id="hF7gDNZxGqtHMVExIgUM-23" value="Cancelar pedido" style="text;html=1;align=center;verticalAlign=middle;whiteSpace=wrap;rounded=0;" vertex="1" parent="1">
          <mxGeometry x="430" y="150" width="60" height="30" as="geometry" />
        </mxCell>
        <mxCell id="hF7gDNZxGqtHMVExIgUM-24" value="Cancelar pedido" style="text;html=1;align=center;verticalAlign=middle;whiteSpace=wrap;rounded=0;" vertex="1" parent="1">
          <mxGeometry x="630" y="150" width="60" height="30" as="geometry" />
        </mxCell>
        <mxCell id="hF7gDNZxGqtHMVExIgUM-25" value="Cancelar pedido" style="text;html=1;align=center;verticalAlign=middle;whiteSpace=wrap;rounded=0;" vertex="1" parent="1">
          <mxGeometry x="430" y="280" width="60" height="30" as="geometry" />
        </mxCell>
        <mxCell id="hF7gDNZxGqtHMVExIgUM-26" value="Cancelar pedido" style="text;html=1;align=center;verticalAlign=middle;whiteSpace=wrap;rounded=0;" vertex="1" parent="1">
          <mxGeometry x="430" y="360" width="60" height="30" as="geometry" />
        </mxCell>
        <mxCell id="hF7gDNZxGqtHMVExIgUM-27" value="" style="ellipse;html=1;shape=endState;fillColor=#FFFFFF;strokeColor=#000000;" vertex="1" parent="1">
          <mxGeometry x="925" y="370" width="30" height="30" as="geometry" />
        </mxCell>
        <mxCell id="hF7gDNZxGqtHMVExIgUM-28" style="edgeStyle=elbowEdgeStyle;html=1;exitX=0.5;exitY=1;entryX=0.5;entryY=0;labelBackgroundColor=none;endArrow=open;endSize=8;strokeColor=#000000;fontFamily=Verdana;fontSize=12;align=left;fillColor=none;exitDx=0;exitDy=0;entryDx=0;entryDy=0;elbow=horizontal;" edge="1" parent="1" source="hF7gDNZxGqtHMVExIgUM-2" target="hF7gDNZxGqtHMVExIgUM-27">
          <mxGeometry relative="1" as="geometry">
            <mxPoint x="700" y="320" as="sourcePoint" />
            <mxPoint x="700" y="400" as="targetPoint" />
            <Array as="points">
              <mxPoint x="940" y="350" />
            </Array>
          </mxGeometry>
        </mxCell>
        <mxCell id="hF7gDNZxGqtHMVExIgUM-30" value="" style="ellipse;html=1;shape=startState;fillColor=#FFFFFF;strokeColor=#000000;rounded=1;shadow=0;comic=0;labelBackgroundColor=none;fontFamily=Verdana;fontSize=12;fontColor=#000000;align=center;direction=south;" vertex="1" parent="1">
          <mxGeometry x="20" y="485" width="30" height="30" as="geometry" />
        </mxCell>
        <mxCell id="hF7gDNZxGqtHMVExIgUM-31" value="Embarcado" style="rounded=1;whiteSpace=wrap;html=1;arcSize=24;fillColor=none;strokeColor=#000000;shadow=0;comic=0;labelBackgroundColor=none;fontFamily=Verdana;fontSize=12;fontColor=#000000;align=center;" vertex="1" parent="1">
          <mxGeometry x="590" y="760" width="120" height="60" as="geometry" />
        </mxCell>
        <mxCell id="hF7gDNZxGqtHMVExIgUM-32" value="Aguardando Pagamento" style="rounded=1;whiteSpace=wrap;html=1;arcSize=24;fillColor=none;strokeColor=#000000;shadow=0;comic=0;labelBackgroundColor=none;fontFamily=Verdana;fontSize=12;fontColor=#000000;align=center;" vertex="1" parent="1">
          <mxGeometry x="90" y="470" width="120" height="60" as="geometry" />
        </mxCell>
        <mxCell id="hF7gDNZxGqtHMVExIgUM-33" style="edgeStyle=orthogonalEdgeStyle;html=1;exitX=1;exitY=0.5;entryX=0.5;entryY=0;labelBackgroundColor=none;endArrow=open;endSize=8;strokeColor=#000000;fontFamily=Verdana;fontSize=12;align=left;fillColor=none;entryDx=0;entryDy=0;exitDx=0;exitDy=0;" edge="1" parent="1" source="hF7gDNZxGqtHMVExIgUM-35" target="hF7gDNZxGqtHMVExIgUM-64">
          <mxGeometry relative="1" as="geometry">
            <Array as="points">
              <mxPoint x="510" y="500" />
            </Array>
          </mxGeometry>
        </mxCell>
        <mxCell id="hF7gDNZxGqtHMVExIgUM-35" value="Aguarda Check-in" style="rounded=1;whiteSpace=wrap;html=1;arcSize=24;fillColor=none;strokeColor=#000000;shadow=0;comic=0;labelBackgroundColor=none;fontFamily=Verdana;fontSize=12;fontColor=#000000;align=center;" vertex="1" parent="1">
          <mxGeometry x="330" y="470" width="120" height="60" as="geometry" />
        </mxCell>
        <mxCell id="hF7gDNZxGqtHMVExIgUM-38" value="Liberado para&lt;div&gt;embarque&lt;/div&gt;" style="rounded=1;whiteSpace=wrap;html=1;arcSize=24;fillColor=none;strokeColor=#000000;shadow=0;comic=0;labelBackgroundColor=none;fontFamily=Verdana;fontSize=12;fontColor=#000000;align=center;" vertex="1" parent="1">
          <mxGeometry x="680" y="530" width="120" height="60" as="geometry" />
        </mxCell>
        <mxCell id="hF7gDNZxGqtHMVExIgUM-39" value="Despachar&lt;div&gt;bagagem&lt;/div&gt;" style="rounded=1;whiteSpace=wrap;html=1;arcSize=24;fillColor=none;strokeColor=#000000;shadow=0;comic=0;labelBackgroundColor=none;fontFamily=Verdana;fontSize=12;fontColor=#000000;align=center;" vertex="1" parent="1">
          <mxGeometry x="680" y="440" width="120" height="60" as="geometry" />
        </mxCell>
        <mxCell id="hF7gDNZxGqtHMVExIgUM-40" style="edgeStyle=orthogonalEdgeStyle;html=1;labelBackgroundColor=none;endArrow=open;endSize=8;strokeColor=#000000;fontFamily=Verdana;fontSize=12;align=left;" edge="1" parent="1" source="hF7gDNZxGqtHMVExIgUM-30" target="hF7gDNZxGqtHMVExIgUM-32">
          <mxGeometry relative="1" as="geometry" />
        </mxCell>
        <mxCell id="hF7gDNZxGqtHMVExIgUM-41" style="edgeStyle=orthogonalEdgeStyle;html=1;labelBackgroundColor=none;endArrow=open;endSize=8;strokeColor=#000000;fontFamily=Verdana;fontSize=12;align=left;entryX=1;entryY=0.75;fillColor=none;exitX=1;exitY=0.25;exitDx=0;exitDy=0;entryDx=0;entryDy=0;" edge="1" parent="1" source="hF7gDNZxGqtHMVExIgUM-32" target="hF7gDNZxGqtHMVExIgUM-32">
          <mxGeometry relative="1" as="geometry">
            <Array as="points">
              <mxPoint x="240" y="485" />
              <mxPoint x="240" y="516" />
            </Array>
          </mxGeometry>
        </mxCell>
        <mxCell id="hF7gDNZxGqtHMVExIgUM-42" value="Espera ate tempo&lt;div&gt;&amp;nbsp;de vencimento&lt;/div&gt;" style="edgeLabel;html=1;align=center;verticalAlign=middle;resizable=0;points=[];" vertex="1" connectable="0" parent="hF7gDNZxGqtHMVExIgUM-41">
          <mxGeometry x="-0.0222" relative="1" as="geometry">
            <mxPoint x="10" y="-29" as="offset" />
          </mxGeometry>
        </mxCell>
        <mxCell id="hF7gDNZxGqtHMVExIgUM-43" style="edgeStyle=orthogonalEdgeStyle;html=1;entryX=0;entryY=0.5;labelBackgroundColor=none;endArrow=open;endSize=8;strokeColor=#000000;fontFamily=Verdana;fontSize=12;align=left;exitX=1;exitY=0.5;fillColor=none;exitDx=0;exitDy=0;entryDx=0;entryDy=0;" edge="1" parent="1" source="hF7gDNZxGqtHMVExIgUM-58" target="hF7gDNZxGqtHMVExIgUM-35">
          <mxGeometry relative="1" as="geometry">
            <mxPoint x="410" y="650" as="sourcePoint" />
            <Array as="points">
              <mxPoint x="300" y="613" />
              <mxPoint x="300" y="500" />
            </Array>
          </mxGeometry>
        </mxCell>
        <mxCell id="hF7gDNZxGqtHMVExIgUM-62" value="Pagamento&amp;nbsp;&lt;div&gt;efetuado&lt;/div&gt;" style="edgeLabel;html=1;align=center;verticalAlign=middle;resizable=0;points=[];" vertex="1" connectable="0" parent="hF7gDNZxGqtHMVExIgUM-43">
          <mxGeometry x="0.0832" y="-3" relative="1" as="geometry">
            <mxPoint x="-43" y="-4" as="offset" />
          </mxGeometry>
        </mxCell>
        <mxCell id="hF7gDNZxGqtHMVExIgUM-44" value="Esperar&lt;div&gt;voo&lt;/div&gt;" style="rounded=1;whiteSpace=wrap;html=1;arcSize=24;fillColor=none;strokeColor=#000000;shadow=0;comic=0;labelBackgroundColor=none;fontFamily=Verdana;fontSize=12;fontColor=#000000;align=center;" vertex="1" parent="1">
          <mxGeometry x="870" y="760" width="120" height="60" as="geometry" />
        </mxCell>
        <mxCell id="hF7gDNZxGqtHMVExIgUM-45" style="edgeStyle=orthogonalEdgeStyle;html=1;entryX=0.5;entryY=0;labelBackgroundColor=none;endArrow=open;endSize=8;strokeColor=#000000;fontFamily=Verdana;fontSize=12;align=left;exitX=0.5;exitY=1;fillColor=none;entryDx=0;entryDy=0;exitDx=0;exitDy=0;" edge="1" parent="1" source="hF7gDNZxGqtHMVExIgUM-32" target="hF7gDNZxGqtHMVExIgUM-58">
          <mxGeometry relative="1" as="geometry">
            <mxPoint x="430" y="540" as="sourcePoint" />
            <Array as="points">
              <mxPoint x="150" y="590" />
            </Array>
            <mxPoint x="190" y="670" as="targetPoint" />
          </mxGeometry>
        </mxCell>
        <mxCell id="hF7gDNZxGqtHMVExIgUM-46" value="" style="edgeStyle=orthogonalEdgeStyle;html=1;labelBackgroundColor=none;endArrow=open;endSize=8;strokeColor=#000000;fontFamily=Verdana;fontSize=12;align=left;exitX=1;exitY=0.5;fillColor=none;exitDx=0;exitDy=0;entryX=0.591;entryY=0.653;entryDx=0;entryDy=0;entryPerimeter=0;" edge="1" parent="1" source="hF7gDNZxGqtHMVExIgUM-64" target="hF7gDNZxGqtHMVExIgUM-67">
          <mxGeometry x="0.001" relative="1" as="geometry">
            <mxPoint x="430" y="540" as="sourcePoint" />
            <Array as="points">
              <mxPoint x="550" y="610" />
              <mxPoint x="590" y="610" />
              <mxPoint x="590" y="519" />
            </Array>
            <mxPoint x="190" y="670" as="targetPoint" />
            <mxPoint as="offset" />
          </mxGeometry>
        </mxCell>
        <mxCell id="hF7gDNZxGqtHMVExIgUM-48" style="edgeStyle=orthogonalEdgeStyle;html=1;entryX=1;entryY=0.5;labelBackgroundColor=none;endArrow=open;endSize=8;strokeColor=#000000;fontFamily=Verdana;fontSize=12;align=left;exitX=0;exitY=0.5;fillColor=none;exitDx=0;exitDy=0;entryDx=0;entryDy=0;" edge="1" parent="1" source="hF7gDNZxGqtHMVExIgUM-44" target="hF7gDNZxGqtHMVExIgUM-31">
          <mxGeometry relative="1" as="geometry">
            <mxPoint x="640" y="660" as="sourcePoint" />
            <Array as="points">
              <mxPoint x="820" y="790" />
              <mxPoint x="820" y="790" />
            </Array>
            <mxPoint x="230" y="790" as="targetPoint" />
          </mxGeometry>
        </mxCell>
        <mxCell id="hF7gDNZxGqtHMVExIgUM-51" value="Tempo&lt;div&gt;vencido&lt;/div&gt;" style="text;html=1;align=center;verticalAlign=middle;whiteSpace=wrap;rounded=0;" vertex="1" parent="1">
          <mxGeometry x="80" y="640" width="60" height="30" as="geometry" />
        </mxCell>
        <mxCell id="hF7gDNZxGqtHMVExIgUM-53" value="Sucesso" style="text;html=1;align=center;verticalAlign=middle;whiteSpace=wrap;rounded=0;" vertex="1" parent="1">
          <mxGeometry x="560" y="610" width="60" height="30" as="geometry" />
        </mxCell>
        <mxCell id="hF7gDNZxGqtHMVExIgUM-58" value="" style="rhombus;whiteSpace=wrap;html=1;" vertex="1" parent="1">
          <mxGeometry x="110" y="590" width="80" height="45" as="geometry" />
        </mxCell>
        <mxCell id="hF7gDNZxGqtHMVExIgUM-59" value="" style="ellipse;html=1;shape=endState;fillColor=#FFFFFF;strokeColor=#000000;" vertex="1" parent="1">
          <mxGeometry x="135" y="700" width="30" height="30" as="geometry" />
        </mxCell>
        <mxCell id="hF7gDNZxGqtHMVExIgUM-60" style="edgeStyle=elbowEdgeStyle;html=1;entryX=0.5;entryY=0;labelBackgroundColor=none;endArrow=open;endSize=8;strokeColor=#000000;fontFamily=Verdana;fontSize=12;align=left;fillColor=none;entryDx=0;entryDy=0;elbow=horizontal;exitX=0.5;exitY=1;exitDx=0;exitDy=0;" edge="1" parent="1" target="hF7gDNZxGqtHMVExIgUM-59" source="hF7gDNZxGqtHMVExIgUM-58">
          <mxGeometry relative="1" as="geometry">
            <mxPoint x="150" y="635" as="sourcePoint" />
            <mxPoint x="-90" y="710" as="targetPoint" />
            <Array as="points">
              <mxPoint x="150" y="660" />
            </Array>
          </mxGeometry>
        </mxCell>
        <mxCell id="hF7gDNZxGqtHMVExIgUM-64" value="" style="rhombus;whiteSpace=wrap;html=1;" vertex="1" parent="1">
          <mxGeometry x="470" y="590" width="80" height="45" as="geometry" />
        </mxCell>
        <mxCell id="hF7gDNZxGqtHMVExIgUM-65" style="edgeStyle=orthogonalEdgeStyle;html=1;exitX=0.5;exitY=1;entryX=1;entryY=0.5;labelBackgroundColor=none;endArrow=open;endSize=8;strokeColor=#000000;fontFamily=Verdana;fontSize=12;align=left;fillColor=none;entryDx=0;entryDy=0;exitDx=0;exitDy=0;" edge="1" parent="1" source="hF7gDNZxGqtHMVExIgUM-64" target="hF7gDNZxGqtHMVExIgUM-59">
          <mxGeometry relative="1" as="geometry">
            <mxPoint x="460" y="510" as="sourcePoint" />
            <mxPoint x="520" y="570" as="targetPoint" />
            <Array as="points">
              <mxPoint x="510" y="720" />
              <mxPoint x="165" y="720" />
            </Array>
          </mxGeometry>
        </mxCell>
        <mxCell id="hF7gDNZxGqtHMVExIgUM-66" value="Data vencida" style="edgeLabel;html=1;align=center;verticalAlign=middle;resizable=0;points=[];" vertex="1" connectable="0" parent="1">
          <mxGeometry x="440" y="714.9988274614659" as="geometry">
            <mxPoint x="-13" y="-5" as="offset" />
          </mxGeometry>
        </mxCell>
        <mxCell id="hF7gDNZxGqtHMVExIgUM-67" value="" style="line;strokeWidth=4;direction=south;html=1;perimeter=backbonePerimeter;points=[];outlineConnect=0;" vertex="1" parent="1">
          <mxGeometry x="620" y="460" width="20" height="100" as="geometry" />
        </mxCell>
        <mxCell id="hF7gDNZxGqtHMVExIgUM-70" value="" style="line;strokeWidth=4;direction=south;html=1;perimeter=backbonePerimeter;points=[];outlineConnect=0;" vertex="1" parent="1">
          <mxGeometry x="830" y="460" width="20" height="100" as="geometry" />
        </mxCell>
        <mxCell id="hF7gDNZxGqtHMVExIgUM-71" style="edgeStyle=orthogonalEdgeStyle;html=1;entryX=0;entryY=0.5;labelBackgroundColor=none;endArrow=open;endSize=8;strokeColor=#000000;fontFamily=Verdana;fontSize=12;align=left;fillColor=none;entryDx=0;entryDy=0;" edge="1" parent="1" source="hF7gDNZxGqtHMVExIgUM-67" target="hF7gDNZxGqtHMVExIgUM-39">
          <mxGeometry relative="1" as="geometry">
            <mxPoint x="460" y="510" as="sourcePoint" />
            <mxPoint x="520" y="600" as="targetPoint" />
            <Array as="points">
              <mxPoint x="660" y="520" />
              <mxPoint x="660" y="470" />
            </Array>
          </mxGeometry>
        </mxCell>
        <mxCell id="hF7gDNZxGqtHMVExIgUM-72" style="edgeStyle=orthogonalEdgeStyle;html=1;entryX=0;entryY=0.5;labelBackgroundColor=none;endArrow=open;endSize=8;strokeColor=#000000;fontFamily=Verdana;fontSize=12;align=left;fillColor=none;entryDx=0;entryDy=0;" edge="1" parent="1" source="hF7gDNZxGqtHMVExIgUM-67" target="hF7gDNZxGqtHMVExIgUM-38">
          <mxGeometry relative="1" as="geometry">
            <mxPoint x="641" y="520" as="sourcePoint" />
            <mxPoint x="690" y="465" as="targetPoint" />
            <Array as="points">
              <mxPoint x="660" y="520" />
              <mxPoint x="660" y="560" />
            </Array>
          </mxGeometry>
        </mxCell>
        <mxCell id="hF7gDNZxGqtHMVExIgUM-73" style="edgeStyle=orthogonalEdgeStyle;html=1;labelBackgroundColor=none;endArrow=open;endSize=8;strokeColor=#000000;fontFamily=Verdana;fontSize=12;align=left;fillColor=none;exitX=1;exitY=0.5;exitDx=0;exitDy=0;" edge="1" parent="1" source="hF7gDNZxGqtHMVExIgUM-39">
          <mxGeometry relative="1" as="geometry">
            <mxPoint x="800" y="480" as="sourcePoint" />
            <mxPoint x="840" y="520" as="targetPoint" />
            <Array as="points">
              <mxPoint x="820" y="470" />
              <mxPoint x="820" y="520" />
            </Array>
          </mxGeometry>
        </mxCell>
        <mxCell id="hF7gDNZxGqtHMVExIgUM-74" style="edgeStyle=orthogonalEdgeStyle;html=1;labelBackgroundColor=none;endArrow=open;endSize=8;strokeColor=#000000;fontFamily=Verdana;fontSize=12;align=left;fillColor=none;exitX=1;exitY=0.5;exitDx=0;exitDy=0;" edge="1" parent="1">
          <mxGeometry relative="1" as="geometry">
            <mxPoint x="800" y="560" as="sourcePoint" />
            <mxPoint x="840" y="520" as="targetPoint" />
            <Array as="points">
              <mxPoint x="820" y="560" />
              <mxPoint x="820" y="520" />
            </Array>
          </mxGeometry>
        </mxCell>
        <mxCell id="hF7gDNZxGqtHMVExIgUM-75" value="" style="edgeStyle=orthogonalEdgeStyle;html=1;labelBackgroundColor=none;endArrow=open;endSize=8;strokeColor=#000000;fontFamily=Verdana;fontSize=12;align=left;exitX=0.6;exitY=0.5;fillColor=none;exitDx=0;exitDy=0;entryX=0.5;entryY=0;entryDx=0;entryDy=0;exitPerimeter=0;" edge="1" parent="1" source="hF7gDNZxGqtHMVExIgUM-70" target="hF7gDNZxGqtHMVExIgUM-44">
          <mxGeometry x="0.001" relative="1" as="geometry">
            <mxPoint x="860" y="534" as="sourcePoint" />
            <Array as="points">
              <mxPoint x="930" y="520" />
            </Array>
            <mxPoint x="938" y="440" as="targetPoint" />
            <mxPoint as="offset" />
          </mxGeometry>
        </mxCell>
        <mxCell id="hF7gDNZxGqtHMVExIgUM-76" value="Entrar no&lt;div&gt;saguão&lt;/div&gt;" style="text;html=1;align=center;verticalAlign=middle;whiteSpace=wrap;rounded=0;" vertex="1" parent="1">
          <mxGeometry x="930" y="605" width="60" height="30" as="geometry" />
        </mxCell>
        <mxCell id="hF7gDNZxGqtHMVExIgUM-77" value="Embarque realizado" style="text;html=1;align=center;verticalAlign=middle;resizable=0;points=[];autosize=1;strokeColor=none;fillColor=none;" vertex="1" parent="1">
          <mxGeometry x="720" y="760" width="130" height="30" as="geometry" />
        </mxCell>
        <mxCell id="hF7gDNZxGqtHMVExIgUM-78" style="edgeStyle=orthogonalEdgeStyle;html=1;entryX=0.5;entryY=1;labelBackgroundColor=none;endArrow=open;endSize=8;strokeColor=#000000;fontFamily=Verdana;fontSize=12;align=left;exitX=0;exitY=0.5;fillColor=none;exitDx=0;exitDy=0;entryDx=0;entryDy=0;" edge="1" parent="1" source="hF7gDNZxGqtHMVExIgUM-31" target="hF7gDNZxGqtHMVExIgUM-59">
          <mxGeometry relative="1" as="geometry">
            <mxPoint x="520" y="719" as="sourcePoint" />
            <Array as="points">
              <mxPoint x="150" y="790" />
            </Array>
            <mxPoint x="360" y="719" as="targetPoint" />
          </mxGeometry>
        </mxCell>
      </root>
    </mxGraphModel>
  </diagram>
</mxfile>
